<svg xmlns="http://www.w3.org/2000/svg" width="256" height="256" viewBox="0 0 128 128">
  <rect width="128" height="128" rx="28" fill="#172033"/>
  <path d="M25 35c0-7.2 5.8-13 13-13h52c7.2 0 13 5.8 13 13v35c0 7.2-5.8 13-13 13H63L45 100V83h-7c-7.2 0-13-5.8-13-13V35z" fill="#1f9d8a"/>
  <path d="M42 45 30 56l12 11" fill="none" stroke="#f7fafc" stroke-width="7" stroke-linecap="round" stroke-linejoin="round"/>
  <path d="M86 45 98 56 86 67" fill="none" stroke="#f7fafc" stroke-width="7" stroke-linecap="round" stroke-linejoin="round"/>
  <path d="M57 72 71 40" fill="none" stroke="#ffd166" stroke-width="7" stroke-linecap="round"/>
  <circle cx="91" cy="88" r="14" fill="#ffd166"/>
  <text x="91" y="94" text-anchor="middle" font-family="Arial, Helvetica, sans-serif" font-size="16" font-weight="700" fill="#172033">LM</text>
</svg>
